<?xml version="1.0" encoding="UTF-8" standalone="no"?>
<!DOCTYPE svg PUBLIC "-//W3C//DTD SVG 1.1//EN"
 "http://www.w3.org/Graphics/SVG/1.1/DTD/svg11.dtd">
<!-- Generated by graphviz version 5.0.0 (20220707.1540)
 -->
<!-- Title: dependencies Pages: 1 -->
<svg width="2007pt" height="247pt"
 viewBox="0.00 0.00 2007.00 246.80" xmlns="http://www.w3.org/2000/svg" xmlns:xlink="http://www.w3.org/1999/xlink">
<g id="graph0" class="graph" transform="scale(1 1) rotate(0) translate(4 242.8)">
<title>dependencies</title>
<polygon fill="white" stroke="transparent" points="-4,4 -4,-242.8 2003,-242.8 2003,4 -4,4"/>
<text text-anchor="middle" x="999.5" y="-8.2" font-family="sans-serif" font-size="14.00">dependencies</text>
<g id="clust1" class="cluster">
<title>cluster_AppModule</title>
<polygon fill="none" stroke="black" stroke-dasharray="1,5" points="8,-32.8 8,-230.8 1991,-230.8 1991,-32.8 8,-32.8"/>
</g>
<g id="clust2" class="cluster">
<title>cluster_AppModule_declarations</title>
<polygon fill="none" stroke="black" points="168,-40.8 168,-92.8 1983,-92.8 1983,-40.8 168,-40.8"/>
</g>
<g id="clust15" class="cluster">
<title>cluster_AppModule_imports</title>
<polygon fill="none" stroke="black" points="16,-40.8 16,-92.8 160,-92.8 160,-40.8 16,-40.8"/>
</g>
<g id="clust17" class="cluster">
<title>cluster_AppModule_bootstrap</title>
<polygon fill="none" stroke="black" points="886,-170.8 886,-222.8 1010,-222.8 1010,-170.8 886,-170.8"/>
</g>
<!-- AdventureItemComponent -->
<g id="node1" class="node">
<title>AdventureItemComponent</title>
<polygon fill="#ffffb3" stroke="black" points="1975.08,-84.8 1808.92,-84.8 1808.92,-48.8 1975.08,-48.8 1975.08,-84.8"/>
<text text-anchor="middle" x="1892" y="-62.6" font-family="Times,serif" font-size="14.00">AdventureItemComponent</text>
</g>
<!-- AppModule -->
<g id="node13" class="node">
<title>AppModule</title>
<polygon fill="#8dd3c7" stroke="black" points="989.66,-149.8 986.66,-153.8 965.66,-153.8 962.66,-149.8 906.34,-149.8 906.34,-113.8 989.66,-113.8 989.66,-149.8"/>
<text text-anchor="middle" x="948" y="-127.6" font-family="Times,serif" font-size="14.00">AppModule</text>
</g>
<!-- AdventureItemComponent&#45;&gt;AppModule -->
<g id="edge1" class="edge">
<title>AdventureItemComponent&#45;&gt;AppModule</title>
<path fill="none" stroke="black" d="M1892,-84.89C1892,-107.93 1892,-144.8 1892,-144.8 1892,-144.8 999.78,-144.8 999.78,-144.8"/>
<polygon fill="black" stroke="black" points="999.78,-141.3 989.78,-144.8 999.78,-148.3 999.78,-141.3"/>
</g>
<!-- AdventuresComponent -->
<g id="node2" class="node">
<title>AdventuresComponent</title>
<polygon fill="#ffffb3" stroke="black" points="1790.87,-84.8 1645.13,-84.8 1645.13,-48.8 1790.87,-48.8 1790.87,-84.8"/>
<text text-anchor="middle" x="1718" y="-62.6" font-family="Times,serif" font-size="14.00">AdventuresComponent</text>
</g>
<!-- AdventuresComponent&#45;&gt;AppModule -->
<g id="edge2" class="edge">
<title>AdventuresComponent&#45;&gt;AppModule</title>
<path fill="none" stroke="black" d="M1718,-84.84C1718,-106.46 1718,-139.8 1718,-139.8 1718,-139.8 999.67,-139.8 999.67,-139.8"/>
<polygon fill="black" stroke="black" points="999.67,-136.3 989.67,-139.8 999.67,-143.3 999.67,-136.3"/>
</g>
<!-- AppComponent -->
<g id="node3" class="node">
<title>AppComponent</title>
<polygon fill="#ffffb3" stroke="black" points="1626.94,-84.8 1521.06,-84.8 1521.06,-48.8 1626.94,-48.8 1626.94,-84.8"/>
<text text-anchor="middle" x="1574" y="-62.6" font-family="Times,serif" font-size="14.00">AppComponent</text>
</g>
<!-- AppComponent&#45;&gt;AppModule -->
<g id="edge3" class="edge">
<title>AppComponent&#45;&gt;AppModule</title>
<path fill="none" stroke="black" d="M1574,-85.02C1574,-105.17 1574,-134.8 1574,-134.8 1574,-134.8 1000.05,-134.8 1000.05,-134.8"/>
<polygon fill="black" stroke="black" points="1000.05,-131.3 990.05,-134.8 1000.05,-138.3 1000.05,-131.3"/>
</g>
<!-- DonjonsComponent -->
<g id="node4" class="node">
<title>DonjonsComponent</title>
<polygon fill="#ffffb3" stroke="black" points="1503.28,-84.8 1374.72,-84.8 1374.72,-48.8 1503.28,-48.8 1503.28,-84.8"/>
<text text-anchor="middle" x="1439" y="-62.6" font-family="Times,serif" font-size="14.00">DonjonsComponent</text>
</g>
<!-- DonjonsComponent&#45;&gt;AppModule -->
<g id="edge4" class="edge">
<title>DonjonsComponent&#45;&gt;AppModule</title>
<path fill="none" stroke="black" d="M1439,-85.02C1439,-103.63 1439,-129.8 1439,-129.8 1439,-129.8 999.86,-129.8 999.86,-129.8"/>
<polygon fill="black" stroke="black" points="999.86,-126.3 989.86,-129.8 999.86,-133.3 999.86,-126.3"/>
</g>
<!-- EquipmentItemComponent -->
<g id="node5" class="node">
<title>EquipmentItemComponent</title>
<polygon fill="#ffffb3" stroke="black" points="1356.42,-84.8 1187.58,-84.8 1187.58,-48.8 1356.42,-48.8 1356.42,-84.8"/>
<text text-anchor="middle" x="1272" y="-62.6" font-family="Times,serif" font-size="14.00">EquipmentItemComponent</text>
</g>
<!-- EquipmentItemComponent&#45;&gt;AppModule -->
<g id="edge5" class="edge">
<title>EquipmentItemComponent&#45;&gt;AppModule</title>
<path fill="none" stroke="black" d="M1272,-84.83C1272,-101.86 1272,-124.8 1272,-124.8 1272,-124.8 999.69,-124.8 999.69,-124.8"/>
<polygon fill="black" stroke="black" points="999.69,-121.3 989.69,-124.8 999.69,-128.3 999.69,-121.3"/>
</g>
<!-- EquipmentsComponent -->
<g id="node6" class="node">
<title>EquipmentsComponent</title>
<polygon fill="#ffffb3" stroke="black" points="1170.21,-84.8 1021.79,-84.8 1021.79,-48.8 1170.21,-48.8 1170.21,-84.8"/>
<text text-anchor="middle" x="1096" y="-62.6" font-family="Times,serif" font-size="14.00">EquipmentsComponent</text>
</g>
<!-- EquipmentsComponent&#45;&gt;AppModule -->
<g id="edge6" class="edge">
<title>EquipmentsComponent&#45;&gt;AppModule</title>
<path fill="none" stroke="black" d="M1096,-85.04C1096,-100.37 1096,-119.8 1096,-119.8 1096,-119.8 1000.01,-119.8 1000.01,-119.8"/>
<polygon fill="black" stroke="black" points="1000.02,-116.3 990.01,-119.8 1000.01,-123.3 1000.02,-116.3"/>
</g>
<!-- ErrorComponent -->
<g id="node7" class="node">
<title>ErrorComponent</title>
<polygon fill="#ffffb3" stroke="black" points="1003.37,-84.8 892.63,-84.8 892.63,-48.8 1003.37,-48.8 1003.37,-84.8"/>
<text text-anchor="middle" x="948" y="-62.6" font-family="Times,serif" font-size="14.00">ErrorComponent</text>
</g>
<!-- ErrorComponent&#45;&gt;AppModule -->
<g id="edge7" class="edge">
<title>ErrorComponent&#45;&gt;AppModule</title>
<path fill="none" stroke="black" d="M948,-84.91C948,-84.91 948,-103.79 948,-103.79"/>
<polygon fill="black" stroke="black" points="944.5,-103.79 948,-113.79 951.5,-103.79 944.5,-103.79"/>
</g>
<!-- HeaderComponent -->
<g id="node8" class="node">
<title>HeaderComponent</title>
<polygon fill="#ffffb3" stroke="black" points="874.75,-84.8 753.25,-84.8 753.25,-48.8 874.75,-48.8 874.75,-84.8"/>
<text text-anchor="middle" x="814" y="-62.6" font-family="Times,serif" font-size="14.00">HeaderComponent</text>
</g>
<!-- HeaderComponent&#45;&gt;AppModule -->
<g id="edge8" class="edge">
<title>HeaderComponent&#45;&gt;AppModule</title>
<path fill="none" stroke="black" d="M814,-85.04C814,-100.37 814,-119.8 814,-119.8 814,-119.8 896.34,-119.8 896.34,-119.8"/>
<polygon fill="black" stroke="black" points="896.34,-123.3 906.34,-119.8 896.34,-116.3 896.34,-123.3"/>
</g>
<!-- HomeComponent -->
<g id="node9" class="node">
<title>HomeComponent</title>
<polygon fill="#ffffb3" stroke="black" points="734.55,-84.8 619.45,-84.8 619.45,-48.8 734.55,-48.8 734.55,-84.8"/>
<text text-anchor="middle" x="677" y="-62.6" font-family="Times,serif" font-size="14.00">HomeComponent</text>
</g>
<!-- HomeComponent&#45;&gt;AppModule -->
<g id="edge9" class="edge">
<title>HomeComponent&#45;&gt;AppModule</title>
<path fill="none" stroke="black" d="M677,-84.83C677,-101.86 677,-124.8 677,-124.8 677,-124.8 896.25,-124.8 896.25,-124.8"/>
<polygon fill="black" stroke="black" points="896.25,-128.3 906.25,-124.8 896.25,-121.3 896.25,-128.3"/>
</g>
<!-- ParametersComponent -->
<g id="node10" class="node">
<title>ParametersComponent</title>
<polygon fill="#ffffb3" stroke="black" points="600.53,-84.8 457.47,-84.8 457.47,-48.8 600.53,-48.8 600.53,-84.8"/>
<text text-anchor="middle" x="529" y="-62.6" font-family="Times,serif" font-size="14.00">ParametersComponent</text>
</g>
<!-- ParametersComponent&#45;&gt;AppModule -->
<g id="edge10" class="edge">
<title>ParametersComponent&#45;&gt;AppModule</title>
<path fill="none" stroke="black" d="M529,-85.02C529,-103.63 529,-129.8 529,-129.8 529,-129.8 896.29,-129.8 896.29,-129.8"/>
<polygon fill="black" stroke="black" points="896.29,-133.3 906.29,-129.8 896.29,-126.3 896.29,-133.3"/>
</g>
<!-- StatsComponent -->
<g id="node11" class="node">
<title>StatsComponent</title>
<polygon fill="#ffffb3" stroke="black" points="439.06,-84.8 330.94,-84.8 330.94,-48.8 439.06,-48.8 439.06,-84.8"/>
<text text-anchor="middle" x="385" y="-62.6" font-family="Times,serif" font-size="14.00">StatsComponent</text>
</g>
<!-- StatsComponent&#45;&gt;AppModule -->
<g id="edge11" class="edge">
<title>StatsComponent&#45;&gt;AppModule</title>
<path fill="none" stroke="black" d="M385,-85.02C385,-105.17 385,-134.8 385,-134.8 385,-134.8 896.14,-134.8 896.14,-134.8"/>
<polygon fill="black" stroke="black" points="896.14,-138.3 906.14,-134.8 896.14,-131.3 896.14,-138.3"/>
</g>
<!-- UserInfosComponent -->
<g id="node12" class="node">
<title>UserInfosComponent</title>
<polygon fill="#ffffb3" stroke="black" points="312.04,-84.8 175.96,-84.8 175.96,-48.8 312.04,-48.8 312.04,-84.8"/>
<text text-anchor="middle" x="244" y="-62.6" font-family="Times,serif" font-size="14.00">UserInfosComponent</text>
</g>
<!-- UserInfosComponent&#45;&gt;AppModule -->
<g id="edge12" class="edge">
<title>UserInfosComponent&#45;&gt;AppModule</title>
<path fill="none" stroke="black" d="M244,-84.84C244,-106.46 244,-139.8 244,-139.8 244,-139.8 896.33,-139.8 896.33,-139.8"/>
<polygon fill="black" stroke="black" points="896.33,-143.3 906.33,-139.8 896.33,-136.3 896.33,-143.3"/>
</g>
<!-- AppComponent  -->
<g id="node15" class="node">
<title>AppComponent </title>
<polygon fill="#80b1d3" stroke="black" points="1002.44,-214.8 893.56,-214.8 893.56,-178.8 1002.44,-178.8 1002.44,-214.8"/>
<text text-anchor="middle" x="948" y="-192.6" font-family="Times,serif" font-size="14.00">AppComponent </text>
</g>
<!-- AppModule&#45;&gt;AppComponent  -->
<g id="edge14" class="edge">
<title>AppModule&#45;&gt;AppComponent </title>
<path fill="none" stroke="black" stroke-dasharray="1,5" d="M948,-149.91C948,-149.91 948,-168.79 948,-168.79"/>
<polygon fill="black" stroke="black" points="944.5,-168.79 948,-178.79 951.5,-168.79 944.5,-168.79"/>
</g>
<!-- AppRoutingModule -->
<g id="node14" class="node">
<title>AppRoutingModule</title>
<polygon fill="#8dd3c7" stroke="black" points="152.28,-84.8 149.28,-88.8 128.28,-88.8 125.28,-84.8 23.72,-84.8 23.72,-48.8 152.28,-48.8 152.28,-84.8"/>
<text text-anchor="middle" x="88" y="-62.6" font-family="Times,serif" font-size="14.00">AppRoutingModule</text>
</g>
<!-- AppRoutingModule&#45;&gt;AppModule -->
<g id="edge13" class="edge">
<title>AppRoutingModule&#45;&gt;AppModule</title>
<path fill="none" stroke="black" d="M88,-84.89C88,-107.93 88,-144.8 88,-144.8 88,-144.8 896.23,-144.8 896.23,-144.8"/>
<polygon fill="black" stroke="black" points="896.23,-148.3 906.23,-144.8 896.23,-141.3 896.23,-148.3"/>
</g>
</g>
</svg>
