<?xml version="1.0" encoding="UTF-8" standalone="no"?>
<!DOCTYPE svg PUBLIC "-//W3C//DTD SVG 1.1//EN"
 "http://www.w3.org/Graphics/SVG/1.1/DTD/svg11.dtd">
<!-- Generated by graphviz version 5.0.0 (20220707.1540)
 -->
<!-- Title: dependencies Pages: 1 -->
<svg width="2007pt" height="247pt"
 viewBox="0.00 0.00 2007.00 246.80" xmlns="http://www.w3.org/2000/svg" xmlns:xlink="http://www.w3.org/1999/xlink">
<g id="graph0" class="graph" transform="scale(1 1) rotate(0) translate(4 242.8)">
<title>dependencies</title>
<polygon fill="white" stroke="transparent" points="-4,4 -4,-242.8 2003,-242.8 2003,4 -4,4"/>
<text text-anchor="middle" x="999.5" y="-8.2" font-family="sans-serif" font-size="14.00">dependencies</text>
<g id="clust1" class="cluster">
<title>cluster_AppModule</title>
<polygon fill="none" stroke="black" stroke-dasharray="1,5" points="8,-32.8 8,-230.8 1991,-230.8 1991,-32.8 8,-32.8"/>
</g>
<g id="clust15" class="cluster">
<title>cluster_AppModule_imports</title>
<polygon fill="none" stroke="black" points="1839,-40.8 1839,-92.8 1983,-92.8 1983,-40.8 1839,-40.8"/>
</g>
<g id="clust17" class="cluster">
<title>cluster_AppModule_bootstrap</title>
<polygon fill="none" stroke="black" points="882,-170.8 882,-222.8 1006,-222.8 1006,-170.8 882,-170.8"/>
</g>
<g id="clust2" class="cluster">
<title>cluster_AppModule_declarations</title>
<polygon fill="none" stroke="black" points="16,-40.8 16,-92.8 1831,-92.8 1831,-40.8 16,-40.8"/>
</g>
<!-- AdventureItemComponent -->
<g id="node1" class="node">
<title>AdventureItemComponent</title>
<polygon fill="#ffffb3" stroke="black" points="1823.08,-84.8 1656.92,-84.8 1656.92,-48.8 1823.08,-48.8 1823.08,-84.8"/>
<text text-anchor="middle" x="1740" y="-62.6" font-family="Times,serif" font-size="14.00">AdventureItemComponent</text>
</g>
<!-- AppModule -->
<g id="node13" class="node">
<title>AppModule</title>
<polygon fill="#8dd3c7" stroke="black" points="985.66,-149.8 982.66,-153.8 961.66,-153.8 958.66,-149.8 902.34,-149.8 902.34,-113.8 985.66,-113.8 985.66,-149.8"/>
<text text-anchor="middle" x="944" y="-127.6" font-family="Times,serif" font-size="14.00">AppModule</text>
</g>
<!-- AdventureItemComponent&#45;&gt;AppModule -->
<g id="edge1" class="edge">
<title>AdventureItemComponent&#45;&gt;AppModule</title>
<path fill="none" stroke="black" d="M1740,-84.84C1740,-106.46 1740,-139.8 1740,-139.8 1740,-139.8 995.68,-139.8 995.68,-139.8"/>
<polygon fill="black" stroke="black" points="995.68,-136.3 985.68,-139.8 995.68,-143.3 995.68,-136.3"/>
</g>
<!-- AdventuresComponent -->
<g id="node2" class="node">
<title>AdventuresComponent</title>
<polygon fill="#ffffb3" stroke="black" points="1638.87,-84.8 1493.13,-84.8 1493.13,-48.8 1638.87,-48.8 1638.87,-84.8"/>
<text text-anchor="middle" x="1566" y="-62.6" font-family="Times,serif" font-size="14.00">AdventuresComponent</text>
</g>
<!-- AdventuresComponent&#45;&gt;AppModule -->
<g id="edge2" class="edge">
<title>AdventuresComponent&#45;&gt;AppModule</title>
<path fill="none" stroke="black" d="M1566,-85.02C1566,-105.17 1566,-134.8 1566,-134.8 1566,-134.8 995.78,-134.8 995.78,-134.8"/>
<polygon fill="black" stroke="black" points="995.78,-131.3 985.78,-134.8 995.78,-138.3 995.78,-131.3"/>
</g>
<!-- AppComponent -->
<g id="node3" class="node">
<title>AppComponent</title>
<polygon fill="#ffffb3" stroke="black" points="1474.94,-84.8 1369.06,-84.8 1369.06,-48.8 1474.94,-48.8 1474.94,-84.8"/>
<text text-anchor="middle" x="1422" y="-62.6" font-family="Times,serif" font-size="14.00">AppComponent</text>
</g>
<!-- AppComponent&#45;&gt;AppModule -->
<g id="edge3" class="edge">
<title>AppComponent&#45;&gt;AppModule</title>
<path fill="none" stroke="black" d="M1422,-85.02C1422,-103.63 1422,-129.8 1422,-129.8 1422,-129.8 996,-129.8 996,-129.8"/>
<polygon fill="black" stroke="black" points="996,-126.3 986,-129.8 996,-133.3 996,-126.3"/>
</g>
<!-- DonjonsComponent -->
<g id="node4" class="node">
<title>DonjonsComponent</title>
<polygon fill="#ffffb3" stroke="black" points="1351.28,-84.8 1222.72,-84.8 1222.72,-48.8 1351.28,-48.8 1351.28,-84.8"/>
<text text-anchor="middle" x="1287" y="-62.6" font-family="Times,serif" font-size="14.00">DonjonsComponent</text>
</g>
<!-- DonjonsComponent&#45;&gt;AppModule -->
<g id="edge4" class="edge">
<title>DonjonsComponent&#45;&gt;AppModule</title>
<path fill="none" stroke="black" d="M1287,-84.83C1287,-101.86 1287,-124.8 1287,-124.8 1287,-124.8 995.72,-124.8 995.72,-124.8"/>
<polygon fill="black" stroke="black" points="995.72,-121.3 985.72,-124.8 995.72,-128.3 995.72,-121.3"/>
</g>
<!-- EquipmentItemComponent -->
<g id="node5" class="node">
<title>EquipmentItemComponent</title>
<polygon fill="#ffffb3" stroke="black" points="1204.42,-84.8 1035.58,-84.8 1035.58,-48.8 1204.42,-48.8 1204.42,-84.8"/>
<text text-anchor="middle" x="1120" y="-62.6" font-family="Times,serif" font-size="14.00">EquipmentItemComponent</text>
</g>
<!-- EquipmentItemComponent&#45;&gt;AppModule -->
<g id="edge5" class="edge">
<title>EquipmentItemComponent&#45;&gt;AppModule</title>
<path fill="none" stroke="black" d="M1120,-85.04C1120,-100.37 1120,-119.8 1120,-119.8 1120,-119.8 995.71,-119.8 995.71,-119.8"/>
<polygon fill="black" stroke="black" points="995.71,-116.3 985.71,-119.8 995.71,-123.3 995.71,-116.3"/>
</g>
<!-- EquipmentsComponent -->
<g id="node6" class="node">
<title>EquipmentsComponent</title>
<polygon fill="#ffffb3" stroke="black" points="1018.21,-84.8 869.79,-84.8 869.79,-48.8 1018.21,-48.8 1018.21,-84.8"/>
<text text-anchor="middle" x="944" y="-62.6" font-family="Times,serif" font-size="14.00">EquipmentsComponent</text>
</g>
<!-- EquipmentsComponent&#45;&gt;AppModule -->
<g id="edge6" class="edge">
<title>EquipmentsComponent&#45;&gt;AppModule</title>
<path fill="none" stroke="black" d="M944,-84.91C944,-84.91 944,-103.79 944,-103.79"/>
<polygon fill="black" stroke="black" points="940.5,-103.79 944,-113.79 947.5,-103.79 940.5,-103.79"/>
</g>
<!-- ErrorComponent -->
<g id="node7" class="node">
<title>ErrorComponent</title>
<polygon fill="#ffffb3" stroke="black" points="851.37,-84.8 740.63,-84.8 740.63,-48.8 851.37,-48.8 851.37,-84.8"/>
<text text-anchor="middle" x="796" y="-62.6" font-family="Times,serif" font-size="14.00">ErrorComponent</text>
</g>
<!-- ErrorComponent&#45;&gt;AppModule -->
<g id="edge7" class="edge">
<title>ErrorComponent&#45;&gt;AppModule</title>
<path fill="none" stroke="black" d="M796,-85.04C796,-100.37 796,-119.8 796,-119.8 796,-119.8 891.99,-119.8 891.99,-119.8"/>
<polygon fill="black" stroke="black" points="891.99,-123.3 901.99,-119.8 891.98,-116.3 891.99,-123.3"/>
</g>
<!-- HeaderComponent -->
<g id="node8" class="node">
<title>HeaderComponent</title>
<polygon fill="#ffffb3" stroke="black" points="722.75,-84.8 601.25,-84.8 601.25,-48.8 722.75,-48.8 722.75,-84.8"/>
<text text-anchor="middle" x="662" y="-62.6" font-family="Times,serif" font-size="14.00">HeaderComponent</text>
</g>
<!-- HeaderComponent&#45;&gt;AppModule -->
<g id="edge8" class="edge">
<title>HeaderComponent&#45;&gt;AppModule</title>
<path fill="none" stroke="black" d="M662,-84.83C662,-101.86 662,-124.8 662,-124.8 662,-124.8 892.09,-124.8 892.09,-124.8"/>
<polygon fill="black" stroke="black" points="892.09,-128.3 902.09,-124.8 892.09,-121.3 892.09,-128.3"/>
</g>
<!-- HomeComponent -->
<g id="node9" class="node">
<title>HomeComponent</title>
<polygon fill="#ffffb3" stroke="black" points="582.55,-84.8 467.45,-84.8 467.45,-48.8 582.55,-48.8 582.55,-84.8"/>
<text text-anchor="middle" x="525" y="-62.6" font-family="Times,serif" font-size="14.00">HomeComponent</text>
</g>
<!-- HomeComponent&#45;&gt;AppModule -->
<g id="edge9" class="edge">
<title>HomeComponent&#45;&gt;AppModule</title>
<path fill="none" stroke="black" d="M525,-85.02C525,-103.63 525,-129.8 525,-129.8 525,-129.8 892.29,-129.8 892.29,-129.8"/>
<polygon fill="black" stroke="black" points="892.29,-133.3 902.29,-129.8 892.29,-126.3 892.29,-133.3"/>
</g>
<!-- ParametersComponent -->
<g id="node10" class="node">
<title>ParametersComponent</title>
<polygon fill="#ffffb3" stroke="black" points="448.53,-84.8 305.47,-84.8 305.47,-48.8 448.53,-48.8 448.53,-84.8"/>
<text text-anchor="middle" x="377" y="-62.6" font-family="Times,serif" font-size="14.00">ParametersComponent</text>
</g>
<!-- ParametersComponent&#45;&gt;AppModule -->
<g id="edge10" class="edge">
<title>ParametersComponent&#45;&gt;AppModule</title>
<path fill="none" stroke="black" d="M377,-85.02C377,-105.17 377,-134.8 377,-134.8 377,-134.8 892.31,-134.8 892.31,-134.8"/>
<polygon fill="black" stroke="black" points="892.31,-138.3 902.31,-134.8 892.31,-131.3 892.31,-138.3"/>
</g>
<!-- StatsComponent -->
<g id="node11" class="node">
<title>StatsComponent</title>
<polygon fill="#ffffb3" stroke="black" points="287.06,-84.8 178.94,-84.8 178.94,-48.8 287.06,-48.8 287.06,-84.8"/>
<text text-anchor="middle" x="233" y="-62.6" font-family="Times,serif" font-size="14.00">StatsComponent</text>
</g>
<!-- StatsComponent&#45;&gt;AppModule -->
<g id="edge11" class="edge">
<title>StatsComponent&#45;&gt;AppModule</title>
<path fill="none" stroke="black" d="M233,-84.84C233,-106.46 233,-139.8 233,-139.8 233,-139.8 892.18,-139.8 892.18,-139.8"/>
<polygon fill="black" stroke="black" points="892.18,-143.3 902.18,-139.8 892.18,-136.3 892.18,-143.3"/>
</g>
<!-- UserInfosComponent -->
<g id="node12" class="node">
<title>UserInfosComponent</title>
<polygon fill="#ffffb3" stroke="black" points="160.04,-84.8 23.96,-84.8 23.96,-48.8 160.04,-48.8 160.04,-84.8"/>
<text text-anchor="middle" x="92" y="-62.6" font-family="Times,serif" font-size="14.00">UserInfosComponent</text>
</g>
<!-- UserInfosComponent&#45;&gt;AppModule -->
<g id="edge12" class="edge">
<title>UserInfosComponent&#45;&gt;AppModule</title>
<path fill="none" stroke="black" d="M92,-84.89C92,-107.93 92,-144.8 92,-144.8 92,-144.8 892.33,-144.8 892.33,-144.8"/>
<polygon fill="black" stroke="black" points="892.33,-148.3 902.33,-144.8 892.33,-141.3 892.33,-148.3"/>
</g>
<!-- AppComponent  -->
<g id="node15" class="node">
<title>AppComponent </title>
<polygon fill="#80b1d3" stroke="black" points="998.44,-214.8 889.56,-214.8 889.56,-178.8 998.44,-178.8 998.44,-214.8"/>
<text text-anchor="middle" x="944" y="-192.6" font-family="Times,serif" font-size="14.00">AppComponent </text>
</g>
<!-- AppModule&#45;&gt;AppComponent  -->
<g id="edge14" class="edge">
<title>AppModule&#45;&gt;AppComponent </title>
<path fill="none" stroke="black" stroke-dasharray="1,5" d="M944,-149.91C944,-149.91 944,-168.79 944,-168.79"/>
<polygon fill="black" stroke="black" points="940.5,-168.79 944,-178.79 947.5,-168.79 940.5,-168.79"/>
</g>
<!-- AppRoutingModule -->
<g id="node14" class="node">
<title>AppRoutingModule</title>
<polygon fill="#8dd3c7" stroke="black" points="1975.28,-84.8 1972.28,-88.8 1951.28,-88.8 1948.28,-84.8 1846.72,-84.8 1846.72,-48.8 1975.28,-48.8 1975.28,-84.8"/>
<text text-anchor="middle" x="1911" y="-62.6" font-family="Times,serif" font-size="14.00">AppRoutingModule</text>
</g>
<!-- AppRoutingModule&#45;&gt;AppModule -->
<g id="edge13" class="edge">
<title>AppRoutingModule&#45;&gt;AppModule</title>
<path fill="none" stroke="black" d="M1911,-84.89C1911,-107.93 1911,-144.8 1911,-144.8 1911,-144.8 995.86,-144.8 995.86,-144.8"/>
<polygon fill="black" stroke="black" points="995.86,-141.3 985.86,-144.8 995.86,-148.3 995.86,-141.3"/>
</g>
</g>
</svg>
